<svg width="224" height="48" viewBox="0 0 224 48" fill="none" xmlns="http://www.w3.org/2000/svg">
<rect x="8.5" y="8.5" width="63" height="31" fill="#93C5FD" stroke="#2563EB" stroke-dasharray="2 2"/>
<path d="M15.3335 28V19.2727H20.9244V20.598H16.9144V22.9673H20.5408V24.2926H16.9144V28H15.3335ZM26.0582 25.2472V21.4545H27.6009V28H26.1051V26.8366H26.0369C25.8892 27.2031 25.6463 27.5028 25.3082 27.7358C24.973 27.9687 24.5597 28.0852 24.0682 28.0852C23.6392 28.0852 23.2599 27.9901 22.9304 27.7997C22.6037 27.6065 22.348 27.3267 22.1634 26.9602C21.9787 26.5909 21.8864 26.1449 21.8864 25.6222V21.4545H23.429V25.3835C23.429 25.7983 23.5426 26.1278 23.7699 26.3722C23.9972 26.6165 24.2955 26.7386 24.6648 26.7386C24.892 26.7386 25.1122 26.6832 25.3253 26.5724C25.5384 26.4616 25.7131 26.2969 25.8494 26.0781C25.9886 25.8565 26.0582 25.5795 26.0582 25.2472ZM30.7298 19.2727V28H29.1871V19.2727H30.7298ZM33.8587 19.2727V28H32.3161V19.2727H33.8587ZM38.4897 28V19.2727H40.0707V26.6747H43.9144V28H38.4897ZM48.0735 28.1278C47.4343 28.1278 46.8803 27.9872 46.4116 27.706C45.9428 27.4247 45.5792 27.0312 45.3207 26.5256C45.065 26.0199 44.9371 25.429 44.9371 24.7528C44.9371 24.0767 45.065 23.4844 45.3207 22.9759C45.5792 22.4673 45.9428 22.0724 46.4116 21.7912C46.8803 21.5099 47.4343 21.3693 48.0735 21.3693C48.7127 21.3693 49.2667 21.5099 49.7354 21.7912C50.2042 22.0724 50.5664 22.4673 50.8221 22.9759C51.0806 23.4844 51.2099 24.0767 51.2099 24.7528C51.2099 25.429 51.0806 26.0199 50.8221 26.5256C50.5664 27.0312 50.2042 27.4247 49.7354 27.706C49.2667 27.9872 48.7127 28.1278 48.0735 28.1278ZM48.082 26.892C48.4286 26.892 48.7184 26.7969 48.9513 26.6065C49.1843 26.4134 49.3576 26.1548 49.4712 25.831C49.5877 25.5071 49.646 25.1463 49.646 24.7486C49.646 24.348 49.5877 23.9858 49.4712 23.6619C49.3576 23.3352 49.1843 23.0753 48.9513 22.8821C48.7184 22.6889 48.4286 22.5923 48.082 22.5923C47.7269 22.5923 47.4315 22.6889 47.1957 22.8821C46.9627 23.0753 46.788 23.3352 46.6715 23.6619C46.5579 23.9858 46.5011 24.348 46.5011 24.7486C46.5011 25.1463 46.5579 25.5071 46.6715 25.831C46.788 26.1548 46.9627 26.4134 47.1957 26.6065C47.4315 26.7969 47.7269 26.892 48.082 26.892ZM55.3658 30.5909C54.8118 30.5909 54.3359 30.5156 53.9382 30.3651C53.5405 30.2173 53.2209 30.0185 52.9794 29.7685C52.7379 29.5185 52.5703 29.2415 52.4766 28.9375L53.8658 28.6009C53.9283 28.7287 54.0192 28.8551 54.1385 28.9801C54.2578 29.108 54.4183 29.2131 54.62 29.2955C54.8246 29.3807 55.0817 29.4233 55.3913 29.4233C55.8288 29.4233 56.1911 29.3168 56.478 29.1037C56.7649 28.8935 56.9084 28.5469 56.9084 28.0639V26.8239H56.8317C56.7521 26.983 56.6357 27.1463 56.4822 27.3139C56.3317 27.4815 56.1314 27.6222 55.8814 27.7358C55.6342 27.8494 55.3232 27.9062 54.9482 27.9062C54.4453 27.9062 53.9893 27.7884 53.5803 27.5526C53.174 27.3139 52.8501 26.9588 52.6087 26.4872C52.37 26.0128 52.2507 25.419 52.2507 24.706C52.2507 23.9872 52.37 23.3807 52.6087 22.8864C52.8501 22.3892 53.1754 22.0128 53.5845 21.7571C53.9936 21.4986 54.4496 21.3693 54.9524 21.3693C55.3359 21.3693 55.6513 21.4347 55.8984 21.5653C56.1484 21.6932 56.3473 21.848 56.495 22.0298C56.6428 22.2088 56.755 22.3778 56.8317 22.5369H56.9169V21.4545H58.4382V28.1065C58.4382 28.6662 58.3047 29.1293 58.0376 29.4957C57.7706 29.8622 57.4055 30.1364 56.9425 30.3182C56.4794 30.5 55.9538 30.5909 55.3658 30.5909ZM55.3786 26.696C55.7053 26.696 55.9837 26.6165 56.2138 26.4574C56.4439 26.2983 56.6186 26.0696 56.7379 25.7713C56.8572 25.473 56.9169 25.1151 56.9169 24.6974C56.9169 24.2855 56.8572 23.9247 56.7379 23.6151C56.6214 23.3054 56.4482 23.0653 56.218 22.8949C55.9908 22.7216 55.7109 22.6349 55.3786 22.6349C55.0348 22.6349 54.7479 22.7244 54.5178 22.9034C54.2876 23.0824 54.1143 23.3281 53.9979 23.6406C53.8814 23.9503 53.8232 24.3026 53.8232 24.6974C53.8232 25.098 53.8814 25.4489 53.9979 25.75C54.1172 26.0483 54.2919 26.2812 54.522 26.4489C54.755 26.6136 55.0405 26.696 55.3786 26.696ZM62.8743 28.1278C62.2351 28.1278 61.6811 27.9872 61.2124 27.706C60.7436 27.4247 60.38 27.0312 60.1214 26.5256C59.8658 26.0199 59.7379 25.429 59.7379 24.7528C59.7379 24.0767 59.8658 23.4844 60.1214 22.9759C60.38 22.4673 60.7436 22.0724 61.2124 21.7912C61.6811 21.5099 62.2351 21.3693 62.8743 21.3693C63.5135 21.3693 64.0675 21.5099 64.5362 21.7912C65.005 22.0724 65.3672 22.4673 65.6229 22.9759C65.8814 23.4844 66.0107 24.0767 66.0107 24.7528C66.0107 25.429 65.8814 26.0199 65.6229 26.5256C65.3672 27.0312 65.005 27.4247 64.5362 27.706C64.0675 27.9872 63.5135 28.1278 62.8743 28.1278ZM62.8828 26.892C63.2294 26.892 63.5192 26.7969 63.7521 26.6065C63.9851 26.4134 64.1584 26.1548 64.272 25.831C64.3885 25.5071 64.4467 25.1463 64.4467 24.7486C64.4467 24.348 64.3885 23.9858 64.272 23.6619C64.1584 23.3352 63.9851 23.0753 63.7521 22.8821C63.5192 22.6889 63.2294 22.5923 62.8828 22.5923C62.5277 22.5923 62.2322 22.6889 61.9964 22.8821C61.7635 23.0753 61.5888 23.3352 61.4723 23.6619C61.3587 23.9858 61.3018 24.348 61.3018 24.7486C61.3018 25.1463 61.3587 25.5071 61.4723 25.831C61.5888 26.1548 61.7635 26.4134 61.9964 26.6065C62.2322 26.7969 62.5277 26.892 62.8828 26.892Z" fill="#2563EB"/>
</svg>
